<?xml version="1.0" encoding="iso-8859-1"?>
<!-- Generator: Adobe Illustrator 19.0.0, SVG Export Plug-In . SVG Version: 6.00 Build 0)  -->
<svg xmlns="http://www.w3.org/2000/svg" xmlns:xlink="http://www.w3.org/1999/xlink" x="0px" y="0px"
	 viewBox="0 0 512 512" style="enable-background:new 0 0 512 512;" xml:space="preserve">
<g>
	<g>
		<path d="M366,276c11.046,0,20-8.954,20-20V146c0-11.046-8.954-20-20-20c-11.046,0-20,8.954-20,20v90H40V20C40,8.954,31.046,0,20,0
			S0,8.954,0,20v472c0,11.046,8.954,20,20,20h346c11.046,0,20-8.954,20-20c0-11.046-8.954-20-20-20H40V276H366z"/>
	</g>
</g>
<g>
	<g>
		<path d="M492,0H146c-11.046,0-20,8.954-20,20v126c0,11.046,8.954,20,20,20s20-8.954,20-20V40h306v306H193
			c-11.046,0-20,8.954-20,20c0,11.046,8.954,20,20,20h279v106c0,11.046,8.954,20,20,20c11.046,0,20-8.954,20-20V20
			C512,8.954,503.046,0,492,0z"/>
	</g>
</g>
</svg>
